<?xml version="1.0" encoding="utf-8"?>
<!-- Generator: Adobe Illustrator 26.1.0, SVG Export Plug-In . SVG Version: 6.00 Build 0)  -->
<svg version="1.1" id="Layer_1" xmlns="http://www.w3.org/2000/svg" xmlns:xlink="http://www.w3.org/1999/xlink" x="0px" y="0px"
	 viewBox="0 0 360 360" style="enable-background:new 0 0 360 360;" xml:space="preserve">
<g>
	<g>
		<path d="M252.91,113.72l-107.55-6.95c-0.08,0-0.16-0.01-0.24-0.01c-0.11,0-0.23-0.01-0.34-0.01c-0.13,0-0.25,0-0.38,0.01
			c-0.2,0.01-0.4,0.02-0.6,0.05c-0.11,0.01-0.23,0.03-0.34,0.04c-0.61,0.09-1.22,0.25-1.81,0.48c-0.14,0.05-0.26,0.1-0.36,0.15
			c-0.21,0.08-0.4,0.18-0.6,0.28c-0.24,0.12-0.47,0.26-0.69,0.41c-0.17,0.11-0.35,0.23-0.53,0.38
			c-0.01,0.01-37.21,28.88-37.23,28.89c-0.11,0.08-0.29,0.23-0.5,0.42c-0.14,0.12-0.27,0.26-0.41,0.4c0,0-0.07,0.07-0.1,0.11
			c-0.25,0.27-0.49,0.57-0.71,0.88c-0.12,0.17-0.24,0.35-0.35,0.53c-0.13,0.22-0.23,0.41-0.3,0.54c-0.02,0.04-0.04,0.09-0.06,0.13
			c0,0-0.1,0.22-0.12,0.26c-0.06,0.14-0.12,0.28-0.18,0.43c-0.06,0.15-0.11,0.31-0.16,0.46c-0.05,0.14-0.09,0.28-0.12,0.43
			c0,0-0.05,0.21-0.06,0.25c-0.07,0.3-0.12,0.6-0.16,0.95c0,0.04-0.01,0.08-0.01,0.11c-0.03,0.28-0.04,0.55-0.04,0.81v88.88
			c0,4.51,3.56,8.27,8.11,8.56l58.99,3.81c-0.09,0.01-0.14,0.01-0.14,0.01l52.73,29.91v-27.47c0,0-0.01-0.01-0.01-0.01
			c0.68-0.29,1.32-0.67,1.9-1.12l37.17-28.84c2.1-1.64,3.3-4.1,3.3-6.74v-88.89C261.02,117.78,257.46,114.02,252.91,113.72z
			 M145.89,116.44l97.17,6.28l-11.37,8.82l-95.04-7.93L145.89,116.44z M211.73,233.94l-100.61-6.5v-82.01l33.45,2.16l67.16,4.34
			V233.94z M214.1,145.2l-69.08-4.46l-28.1-1.82l13.73-10.65l95.04,7.94L214.1,145.2z M248.88,207.1l-30.21,23.44v-80.16
			l30.21-23.45V207.1z"/>
		<path d="M201.89,157.67l-69.35-4.27l-12.38-0.76c-0.69-0.04-1.36,0.18-1.87,0.63c-0.5,0.45-0.79,1.07-0.79,1.72v64.37
			c0,0.08,0,0.15,0.01,0.22c0.01,0.08,0.01,0.15,0.03,0.22c0,0,0,0.01,0,0.01c0.01,0.08,0.03,0.14,0.05,0.21c0,0.01,0,0.01,0,0.01
			c0.02,0.06,0.04,0.12,0.07,0.19c0,0.02,0.01,0.03,0.02,0.04c0.02,0.06,0.05,0.12,0.08,0.17c0.04,0.06,0.08,0.13,0.12,0.19
			c0.04,0.06,0.08,0.12,0.13,0.18c0.02,0.03,0.05,0.06,0.08,0.09c0.02,0.02,0.05,0.05,0.07,0.07c0.05,0.05,0.11,0.1,0.16,0.15
			c0.02,0.02,0.04,0.03,0.06,0.05c0.09,0.07,0.19,0.14,0.3,0.2c0.01,0.01,0.03,0.02,0.04,0.02c0.06,0.03,0.12,0.07,0.18,0.09
			c0.06,0.03,0.12,0.05,0.18,0.07c0.01,0.01,0.02,0.01,0.04,0.01c0.07,0.02,0.14,0.05,0.21,0.06c0.08,0.03,0.17,0.04,0.25,0.05
			c0.08,0.01,0.16,0.02,0.24,0.02c0.02,0.01,0.04,0.01,0.07,0.01l81.67,5.03c0.05,0,0.11,0,0.16,0c0.63,0,1.24-0.23,1.71-0.64
			c0.5-0.44,0.79-1.06,0.79-1.72v-64.37C204.23,158.77,203.21,157.74,201.89,157.67z M122.49,157.49l7.39,0.46v50.28l-7.39,5.99
			V157.49z M199.24,221.87l-72.98-4.5l6.98-5.66l66,4.07V221.87z"/>
		<path d="M242.01,147.95c-0.89-0.43-1.94-0.34-2.73,0.25l-14.15,10.56c-0.66,0.48-1.04,1.24-1.04,2.05v21.06
			c0,0.98,0.56,1.87,1.45,2.3c0.36,0.18,0.76,0.27,1.16,0.27c0.55,0,1.11-0.18,1.57-0.53l14.15-10.66c0.65-0.48,1.03-1.24,1.03-2.05
			v-20.97C243.45,149.28,242.89,148.38,242.01,147.95z M238.25,169.94l-8.95,6.74v-14.59l8.95-6.67V169.94z"/>
	</g>
</g>
</svg>
